<?xml version="1.0" encoding="utf-8"?>
<!-- Generator: Adobe Illustrator 17.0.0, SVG Export Plug-In . SVG Version: 6.00 Build 0)  -->
<!DOCTYPE svg PUBLIC "-//W3C//DTD SVG 1.1//EN" "http://www.w3.org/Graphics/SVG/1.1/DTD/svg11.dtd">
<svg version="1.1" id="Layer_1" xmlns="http://www.w3.org/2000/svg" xmlns:xlink="http://www.w3.org/1999/xlink" x="0px" y="0px"
	 width="480px" height="480px" viewBox="0 0 480 480" enable-background="new 0 0 480 480" xml:space="preserve">
<g id="Layer_2">
	
		<rect display="none" fill="#010101" stroke="#F5F5F5" stroke-width="6" stroke-linecap="round" stroke-linejoin="round" stroke-miterlimit="10" width="480" height="480"/>
	
		<path id="copy_1_" fill="none" stroke="#F5F5F5" stroke-width="14" stroke-linecap="round" stroke-linejoin="round" stroke-miterlimit="10" d="
		M76.4,221.7c5.6,0,9-3.1,10.7-9.8c7.1-28.1,15.2-47.5,27.3-65c11.7-16.9,27.8-32.1,44.1-41.9c6.3-3.7,14.7-7.6,22.1-10.9
		c16.2-6.8,16.4-7.5,19.3-11.4c4.9-5.9,7.5-12.3,23-16.1c1.7-0.4,15.8-1.1,17.4-1.2c1.6,0,16.3,0.2,18,0.7
		c15.5,3.8,17.5,10.7,22.4,16.6c2.8,3.9,3.1,4.5,19.3,11.4c7.5,3.3,15.8,7.2,22.1,10.9c16.4,9.8,32.4,25,44.1,41.9
		c12.1,17.6,20.3,37,27.3,65c1.7,6.7,5.1,9.8,10.7,9.8c12.2,0,20.4,9.3,20.4,23.2c0,6.7-1.9,11.8-5.5,14.9
		c-9.1,7.9-51.7,22.2-87.2,29.4c-30.9,6.3-45.3,7.6-85.8,7.6c-2.1,0-4,0-5.9,0s-3.8,0-5.9,0c-40.5,0-54.9-1.3-85.8-7.6
		c-35.5-7.2-78.1-21.5-87.2-29.4c-3.6-3.1-5.5-8.3-5.5-14.9C56.1,231,64.3,221.7,76.4,221.7z M108.3,281.9
		c0.3,3.9,3.6,25.6,3.6,25.6l0,0c4.5,19,10.2,29.1,21.9,45.1c22.9,31.6,60.2,54.2,93.2,60.8c5.9,1.2,20.7,0.7,26.7,0.1
		c33.7-3.2,69.3-29.1,92.3-60.6c11.7-16.1,17.4-26.4,21.9-45.4l0,0c0,0,3.3-20.6,3.6-24.5"/>
	
		<circle fill="#F5F6F6" stroke="#F5F5F5" stroke-linecap="round" stroke-linejoin="round" stroke-miterlimit="10" cx="240.3" cy="194.2" r="13.2"/>
	<path fill="none" stroke="#F5F5F5" stroke-width="6" stroke-linecap="round" stroke-linejoin="round" stroke-miterlimit="10" d="
		M240.3,167.3c17.8,0,34.3,2.5,46.7,6.8c15,5.2,24.2,13,24.2,20.1c0,7.4-9.8,15.7-25.9,21c-12.2,4-28.2,6.1-45,6.1
		c-17.3,0-33.7-2-46-6.2c-15.6-5.3-24.9-13.7-24.9-21c0-7,8.8-14.8,23.6-19.9C205.5,169.9,222.4,167.3,240.3,167.3z"/>
	<path fill="none" stroke="#F5F5F5" stroke-width="6" stroke-linecap="round" stroke-linejoin="round" stroke-miterlimit="10" d="
		M216.9,180.9c8.9-15.4,19.3-28.4,29.3-37c12-10.4,23.3-14.5,29.5-10.9c6.4,3.7,8.7,16.3,5.3,32.9c-2.6,12.6-8.8,27.5-17.2,42.1
		c-8.6,15-18.5,28.2-28.3,36.7c-12.4,10.8-24.4,14.7-30.6,11.1c-6.1-3.5-8.4-15-5.5-30.4C201.8,212.3,208,196.4,216.9,180.9z"/>
	
		<path id="mouth_1_" fill="#010101" stroke="#F5F5F5" stroke-width="14" stroke-linecap="round" stroke-linejoin="round" stroke-miterlimit="10" d="
		M221,368.5h39H221z"/>
	<path fill="none" stroke="#F5F5F5" stroke-width="6" stroke-linecap="round" stroke-linejoin="round" stroke-miterlimit="10" d="
		M217,207.9c-8.9-15.4-15-30.9-17.5-43.8c-3-15.6-0.9-27.5,5.2-31c6.4-3.7,18.5,0.6,31.2,11.9c9.6,8.5,19.4,21.3,27.9,35.9
		c8.7,15,15.2,30.1,17.7,42.9c3.2,16.1,0.6,28.5-5.7,32.1c-6.1,3.5-17.2-0.2-29.1-10.4C236.7,236.7,225.9,223.4,217,207.9z"/>
</g>
</svg>
